REM DIRINDEX 1\2\5,1\2\6,1\2\7,1\2\8,1\3\9,1\3\10,1\3\11,1\4\12,1\4\13,1\4\14,1\4\15,1\4\16
REM DIRNAME folder01,folder02,folder03,folder04,folder05,folder06,folder07,folder08,folder09,folder10,folder11,folder12,folder13,folder14,folder15,folder16
TITLE ""
FILE "1200_sec03_0819_0827.mp3" MP3
  TRACK 01 AUDIO
    TITLE "0:"
    INDEX 01 00:00:00
  TRACK 02 AUDIO
    TITLE "12:cjc034_06943"
    INDEX 01 00:00:19
  TRACK 03 AUDIO
    TITLE "0:"
    INDEX 01 00:01:32
  TRACK 04 AUDIO
    TITLE "13:cjc034_06944"
    INDEX 01 00:01:66
  TRACK 05 AUDIO
    TITLE "0:"
    INDEX 01 00:03:10
  TRACK 06 AUDIO
    TITLE "14:cjc034_06945"
    INDEX 01 00:03:45
  TRACK 07 AUDIO
    TITLE "0:"
    INDEX 01 00:04:58
  TRACK 08 AUDIO
    TITLE "15:cjc034_06946"
    INDEX 01 00:05:16
  TRACK 09 AUDIO
    TITLE "0:"
    INDEX 01 00:09:49
  TRACK 10 AUDIO
    TITLE "16:cjc034_06947"
    INDEX 01 00:11:07
  TRACK 11 AUDIO
    TITLE "0:"
    INDEX 01 00:16:40
  TRACK 12 AUDIO
    TITLE "12:cjc034_06948"
    INDEX 01 00:17:39
  TRACK 13 AUDIO
    TITLE "0:"
    INDEX 01 00:18:56
  TRACK 14 AUDIO
    TITLE "13:cjc034_06949"
    INDEX 01 00:19:15
  TRACK 15 AUDIO
    TITLE "0:"
    INDEX 01 00:21:43
  TRACK 16 AUDIO
    TITLE "14:cjc034_06950"
    INDEX 01 00:22:01
  TRACK 17 AUDIO
    TITLE "0:"
    INDEX 01 00:23:16
  TRACK 18 AUDIO
    TITLE "15:cjc034_06951"
    INDEX 01 00:23:51
  TRACK 19 AUDIO
    TITLE "0:"
    INDEX 01 00:27:32
  TRACK 20 AUDIO
    TITLE "12:cjc034_06952"
    INDEX 01 00:28:66
  TRACK 21 AUDIO
    TITLE "0:"
    INDEX 01 00:30:22
  TRACK 22 AUDIO
    TITLE "13:cjc034_06953"
    INDEX 01 00:30:52
  TRACK 23 AUDIO
    TITLE "0:"
    INDEX 01 00:33:58
  TRACK 24 AUDIO
    TITLE "14:cjc034_06954"
    INDEX 01 00:34:14
  TRACK 25 AUDIO
    TITLE "0:"
    INDEX 01 00:35:43
  TRACK 26 AUDIO
    TITLE "15:cjc034_06955"
    INDEX 01 00:36:01
  TRACK 27 AUDIO
    TITLE "0:"
    INDEX 01 00:40:24
  TRACK 28 AUDIO
    TITLE "12:cjc034_06956"
    INDEX 01 00:41:57
  TRACK 29 AUDIO
    TITLE "0:"
    INDEX 01 00:42:65
  TRACK 30 AUDIO
    TITLE "13:cjc034_06957"
    INDEX 01 00:43:23
  TRACK 31 AUDIO
    TITLE "0:"
    INDEX 01 00:44:14
  TRACK 32 AUDIO
    TITLE "14:cjc034_06958"
    INDEX 01 00:44:48
  TRACK 33 AUDIO
    TITLE "0:"
    INDEX 01 00:45:53
  TRACK 34 AUDIO
    TITLE "15:cjc034_06959"
    INDEX 01 00:46:13
  TRACK 35 AUDIO
    TITLE "0:"
    INDEX 01 00:49:65
  TRACK 36 AUDIO
    TITLE "12:cjc034_06960"
    INDEX 01 00:51:24
  TRACK 37 AUDIO
    TITLE "0:"
    INDEX 01 00:52:28
  TRACK 38 AUDIO
    TITLE "13:cjc034_06961"
    INDEX 01 00:52:65
  TRACK 39 AUDIO
    TITLE "0:"
    INDEX 01 00:54:07
  TRACK 40 AUDIO
    TITLE "14:cjc034_06962"
    INDEX 01 00:54:42
  TRACK 41 AUDIO
    TITLE "0:"
    INDEX 01 00:55:50
  TRACK 42 AUDIO
    TITLE "15:cjc034_06963"
    INDEX 01 00:56:08
  TRACK 43 AUDIO
    TITLE "0:"
    INDEX 01 01:00:12
  TRACK 44 AUDIO
    TITLE "12:cjc034_06964"
    INDEX 01 01:01:44
  TRACK 45 AUDIO
    TITLE "0:"
    INDEX 01 01:02:65
  TRACK 46 AUDIO
    TITLE "13:cjc034_06965"
    INDEX 01 01:03:26
  TRACK 47 AUDIO
    TITLE "0:"
    INDEX 01 01:04:25
  TRACK 48 AUDIO
    TITLE "14:cjc034_06966"
    INDEX 01 01:04:58
  TRACK 49 AUDIO
    TITLE "0:"
    INDEX 01 01:06:04
  TRACK 50 AUDIO
    TITLE "15:cjc034_06967"
    INDEX 01 01:06:38
  TRACK 51 AUDIO
    TITLE "0:"
    INDEX 01 01:10:20
  TRACK 52 AUDIO
    TITLE "12:cjc034_06968"
    INDEX 01 01:11:66
  TRACK 53 AUDIO
    TITLE "0:"
    INDEX 01 01:13:02
  TRACK 54 AUDIO
    TITLE "13:cjc034_06969"
    INDEX 01 01:13:36
  TRACK 55 AUDIO
    TITLE "0:"
    INDEX 01 01:15:62
  TRACK 56 AUDIO
    TITLE "14:cjc034_06970"
    INDEX 01 01:16:30
  TRACK 57 AUDIO
    TITLE "0:"
    INDEX 01 01:17:41
  TRACK 58 AUDIO
    TITLE "15:cjc034_06971"
    INDEX 01 01:18:00
  TRACK 59 AUDIO
    TITLE "0:"
    INDEX 01 01:21:67
  TRACK 60 AUDIO
    TITLE "12:cjc034_06972"
    INDEX 01 01:23:28
  TRACK 61 AUDIO
    TITLE "0:"
    INDEX 01 01:24:28
  TRACK 62 AUDIO
    TITLE "13:cjc034_06973"
    INDEX 01 01:24:63
  TRACK 63 AUDIO
    TITLE "0:"
    INDEX 01 01:25:55
  TRACK 64 AUDIO
    TITLE "14:cjc034_06974"
    INDEX 01 01:26:17
  TRACK 65 AUDIO
    TITLE "0:"
    INDEX 01 01:27:16
  TRACK 66 AUDIO
    TITLE "15:cjc034_06975"
    INDEX 01 01:27:51
  TRACK 67 AUDIO
    TITLE "0:"
    INDEX 01 01:31:59
  TRACK 68 AUDIO
    TITLE "12:cjc034_06976"
    INDEX 01 01:33:19
  TRACK 69 AUDIO
    TITLE "0:"
    INDEX 01 01:34:22
  TRACK 70 AUDIO
    TITLE "13:cjc034_06977"
    INDEX 01 01:34:55
  TRACK 71 AUDIO
    TITLE "0:"
    INDEX 01 01:35:49
  TRACK 72 AUDIO
    TITLE "14:cjc034_06978"
    INDEX 01 01:36:11
  TRACK 73 AUDIO
    TITLE "0:"
    INDEX 01 01:37:13
  TRACK 74 AUDIO
    TITLE "15:cjc034_06979"
    INDEX 01 01:37:48
  TRACK 75 AUDIO
    TITLE "0:"
    INDEX 01 01:41:09
